<svg xmlns="http://www.w3.org/2000/svg" height="40" viewBox="0 96 960 960" width="40">
  <path fill="#FFFBEB" d="M191.386 647.332q-29.386 0-50.552-20.608-21.167-20.608-21.167-50.259 0-30.465 21.013-51.131t50.52-20.666q29.433 0 51.283 20.558 21.849 20.558 21.849 50.309 0 30.465-21.78 51.131t-51.166 20.666Zm289.079 0q-30.465 0-51.131-20.608t-20.666-50.259q0-30.465 20.608-51.131t50.259-20.666q30.465 0 51.131 20.558t20.666 50.309q0 30.465-20.558 51.131t-50.309 20.666Zm288.452 0q-30.381 0-51.815-20.608-21.434-20.608-21.434-50.259 0-30.465 21.489-51.131t51.666-20.666q30.177 0 51.177 20.558 20.999 20.558 20.999 50.309 0 30.465-21.056 51.131-21.057 20.666-51.026 20.666Z"/>
</svg>