<svg width="150" height="150" viewBox="0 0 150 150" fill="none" xmlns="http://www.w3.org/2000/svg">
<rect width="150" height="150" fill="#FFFBEB"/>
<path d="M41.3535 41.8301V45.9434H27.9941V41.8301H41.3535ZM29.5586 31.4062V57H24.2852V31.4062H29.5586ZM45.1152 31.4062V57H39.8594V31.4062H45.1152ZM66.6836 53.0449V57H49.1758V53.625L57.4551 44.748C58.2871 43.8223 58.9434 43.0078 59.4238 42.3047C59.9043 41.5898 60.25 40.9512 60.4609 40.3887C60.6836 39.8145 60.7949 39.2695 60.7949 38.7539C60.7949 37.9805 60.666 37.3184 60.4082 36.7676C60.1504 36.2051 59.7695 35.7715 59.2656 35.4668C58.7734 35.1621 58.1641 35.0098 57.4375 35.0098C56.6641 35.0098 55.9961 35.1973 55.4336 35.5723C54.8828 35.9473 54.4609 36.4688 54.168 37.1367C53.8867 37.8047 53.7461 38.5605 53.7461 39.4043H48.666C48.666 37.8809 49.0293 36.4863 49.7559 35.2207C50.4824 33.9434 51.5078 32.9297 52.832 32.1797C54.1562 31.418 55.7266 31.0371 57.543 31.0371C59.3359 31.0371 60.8477 31.3301 62.0781 31.916C63.3203 32.4902 64.2578 33.3223 64.8906 34.4121C65.5352 35.4902 65.8574 36.7793 65.8574 38.2793C65.8574 39.123 65.7227 39.9492 65.4531 40.7578C65.1836 41.5547 64.7969 42.3516 64.293 43.1484C63.8008 43.9336 63.2031 44.7305 62.5 45.5391C61.7969 46.3477 61.0176 47.1855 60.1621 48.0527L55.7148 53.0449H66.6836Z" fill="#3F3F46"/>
<rect x="23" y="75" width="106" height="6" rx="3" fill="#52525B"/>
<rect x="23" y="99" width="106" height="6" rx="3" fill="#52525B"/>
<rect x="23" y="123" width="63" height="6" rx="3" fill="#52525B"/>
</svg>
