<svg width="150" height="150" viewBox="0 0 150 150" fill="none" xmlns="http://www.w3.org/2000/svg">
<rect width="150" height="150" fill="#FFFBEB"/>
<path d="M40.2031 42.5156V46.1719H28.3281V42.5156H40.2031ZM29.7188 33.25V56H25.0312V33.25H29.7188ZM43.5469 33.25V56H38.875V33.25H43.5469ZM51.7656 42.6719H54.1719C54.9427 42.6719 55.5781 42.5417 56.0781 42.2812C56.5781 42.0104 56.9479 41.6354 57.1875 41.1562C57.4375 40.6667 57.5625 40.099 57.5625 39.4531C57.5625 38.8698 57.4479 38.3542 57.2188 37.9062C57 37.4479 56.6615 37.0938 56.2031 36.8438C55.7448 36.5833 55.1667 36.4531 54.4688 36.4531C53.9167 36.4531 53.4062 36.5625 52.9375 36.7812C52.4688 37 52.0938 37.3073 51.8125 37.7031C51.5312 38.099 51.3906 38.5781 51.3906 39.1406H46.875C46.875 37.8906 47.2083 36.8021 47.875 35.875C48.5521 34.9479 49.4583 34.224 50.5938 33.7031C51.7292 33.1823 52.9792 32.9219 54.3438 32.9219C55.8854 32.9219 57.2344 33.1719 58.3906 33.6719C59.5469 34.1615 60.4479 34.8854 61.0938 35.8438C61.7396 36.8021 62.0625 37.9896 62.0625 39.4062C62.0625 40.125 61.8958 40.8229 61.5625 41.5C61.2292 42.1667 60.75 42.7708 60.125 43.3125C59.5104 43.8438 58.7604 44.2708 57.875 44.5938C56.9896 44.9062 55.9948 45.0625 54.8906 45.0625H51.7656V42.6719ZM51.7656 46.0938V43.7656H54.8906C56.1302 43.7656 57.2188 43.9062 58.1562 44.1875C59.0938 44.4688 59.8802 44.875 60.5156 45.4062C61.151 45.9271 61.6302 46.5469 61.9531 47.2656C62.276 47.974 62.4375 48.7604 62.4375 49.625C62.4375 50.6875 62.2344 51.6354 61.8281 52.4688C61.4219 53.2917 60.849 53.9896 60.1094 54.5625C59.3802 55.1354 58.526 55.5729 57.5469 55.875C56.5677 56.1667 55.5 56.3125 54.3438 56.3125C53.3854 56.3125 52.4427 56.1823 51.5156 55.9219C50.599 55.651 49.7656 55.25 49.0156 54.7188C48.276 54.1771 47.6823 53.5 47.2344 52.6875C46.7969 51.8646 46.5781 50.8906 46.5781 49.7656H51.0938C51.0938 50.349 51.2396 50.8698 51.5312 51.3281C51.8229 51.7865 52.224 52.1458 52.7344 52.4062C53.2552 52.6667 53.8333 52.7969 54.4688 52.7969C55.1875 52.7969 55.8021 52.6667 56.3125 52.4062C56.8333 52.1354 57.2292 51.7604 57.5 51.2812C57.7812 50.7917 57.9219 50.224 57.9219 49.5781C57.9219 48.7448 57.7708 48.0781 57.4688 47.5781C57.1667 47.0677 56.7344 46.6927 56.1719 46.4531C55.6094 46.2135 54.9427 46.0938 54.1719 46.0938H51.7656Z" fill="#3F3F46"/>
<rect x="23" y="75" width="106" height="6" rx="3" fill="#52525B"/>
<rect x="23" y="99" width="106" height="6" rx="3" fill="#52525B"/>
<rect x="23" y="123" width="63" height="6" rx="3" fill="#52525B"/>
</svg>
