<svg width="150" height="150" viewBox="0 0 150 150" fill="none" xmlns="http://www.w3.org/2000/svg">
<rect width="150" height="150" fill="#FFFBEB"/>
<rect x="22" y="45" width="78" height="6" rx="3" fill="#52525B"/>
<rect x="22" y="25" width="106" height="6" rx="3" fill="#52525B"/>
<rect x="22" y="118" width="106" height="6" rx="3" fill="#52525B"/>
<path d="M51.9551 81.9531H49.1074V81.0918L51.9551 80.4062V79.2461C51.9551 76.8086 52.4355 74.9336 53.3965 73.6211C54.3691 72.3086 55.7285 71.6523 57.4746 71.6523C58.377 71.6523 59.2148 71.7637 59.9883 71.9863V75.5898H59.127L58.3359 73.4277C57.9375 73.1816 57.457 73.0586 56.8945 73.0586C56.1562 73.0586 55.6348 73.3867 55.3301 74.043C55.0254 74.6992 54.873 75.9297 54.873 77.7344V80.4766H59.2676V81.9531H54.873V95.6289L58.4414 96.209V97H49.5117V96.209L51.9551 95.6289V81.9531ZM64.9629 88.3164C64.9629 91.3633 65.168 93.7949 65.5781 95.6113C65.9883 97.416 66.6328 98.9395 67.5117 100.182C68.3906 101.424 69.4922 102.426 70.8164 103.188V104.664C68.4961 103.434 66.6797 102.086 65.3672 100.621C64.0664 99.168 63.1055 97.457 62.4844 95.4883C61.875 93.5078 61.5703 91.1172 61.5703 88.3164C61.5703 85.5273 61.875 83.1543 62.4844 81.1973C63.0938 79.2285 64.0488 77.5176 65.3496 76.0645C66.6504 74.6113 68.4727 73.2637 70.8164 72.0215V73.498C69.3867 74.3184 68.25 75.373 67.4062 76.6621C66.5625 77.9395 65.9414 79.4336 65.543 81.1445C65.1562 82.8555 64.9629 85.2461 64.9629 88.3164ZM89.5371 96.209V97H82.0488V96.209L84.2461 95.8047L80.4316 89.9512L75.9668 95.8398L78.2344 96.209V97H72.293V96.209L74.209 95.9277L79.6406 88.7559L74.8594 81.707L72.9082 81.2676V80.4766H80.3965V81.2676L78.1992 81.7422L81.3809 86.4883L85.0371 81.707L82.7695 81.2676V80.4766H88.7109V81.2676L86.8125 81.6367L82.1719 87.6484L87.6035 95.8398L89.5371 96.209ZM91.1367 104.664V103.188C92.4609 102.426 93.5625 101.418 94.4414 100.164C95.3203 98.9219 95.9648 97.3984 96.375 95.5938C96.7852 93.7773 96.9902 91.3516 96.9902 88.3164C96.9902 85.2461 96.791 82.8555 96.3926 81.1445C96.0059 79.4336 95.3906 77.9395 94.5469 76.6621C93.7031 75.373 92.5664 74.3184 91.1367 73.498V72.0215C93.4805 73.2754 95.3027 74.6289 96.6035 76.082C97.9043 77.5234 98.8594 79.2285 99.4688 81.1973C100.078 83.1543 100.383 85.5273 100.383 88.3164C100.383 91.1055 100.078 93.4902 99.4688 95.4707C98.8594 97.4395 97.9043 99.1504 96.6035 100.604C95.3027 102.057 93.4805 103.41 91.1367 104.664Z" fill="#3F3F46"/>
</svg>
