<svg width="150" height="150" viewBox="0 0 150 150" fill="none" xmlns="http://www.w3.org/2000/svg">
<rect width="150" height="150" fill="#FFFBEB"/>
<rect x="16" y="128" width="106" height="6" rx="3" transform="rotate(-90 16 128)" fill="#3F3F46"/>
<path d="M39.8643 37.2031V50H37.2363V37.2031H39.8643ZM43.8018 37.2031V39.2686H33.3604V37.2031H43.8018ZM47.6162 36.5V50H45.085V36.5H47.6162ZM47.2559 44.9111H46.5615C46.5674 44.249 46.6553 43.6396 46.8252 43.083C46.9951 42.5205 47.2383 42.0342 47.5547 41.624C47.8711 41.208 48.249 40.8857 48.6885 40.6572C49.1338 40.4287 49.626 40.3145 50.165 40.3145C50.6338 40.3145 51.0586 40.3818 51.4395 40.5166C51.8262 40.6455 52.1572 40.8564 52.4326 41.1494C52.7139 41.4365 52.9307 41.8145 53.083 42.2832C53.2354 42.752 53.3115 43.3203 53.3115 43.9883V50H50.7627V43.9707C50.7627 43.5488 50.7012 43.2178 50.5781 42.9775C50.4609 42.7314 50.2881 42.5586 50.0596 42.459C49.8369 42.3535 49.5615 42.3008 49.2334 42.3008C48.8701 42.3008 48.5596 42.3682 48.3018 42.5029C48.0498 42.6377 47.8477 42.8252 47.6953 43.0654C47.543 43.2998 47.4316 43.5752 47.3613 43.8916C47.291 44.208 47.2559 44.5479 47.2559 44.9111ZM59.6133 50.1758C58.875 50.1758 58.2129 50.0586 57.627 49.8242C57.041 49.584 56.543 49.2529 56.1328 48.8311C55.7285 48.4092 55.418 47.9199 55.2012 47.3633C54.9844 46.8008 54.876 46.2031 54.876 45.5703V45.2188C54.876 44.498 54.9785 43.8389 55.1836 43.2412C55.3887 42.6436 55.6816 42.125 56.0625 41.6855C56.4492 41.2461 56.918 40.9092 57.4688 40.6748C58.0195 40.4346 58.6406 40.3145 59.332 40.3145C60.0059 40.3145 60.6035 40.4258 61.125 40.6484C61.6465 40.8711 62.083 41.1875 62.4346 41.5977C62.792 42.0078 63.0615 42.5 63.2432 43.0742C63.4248 43.6426 63.5156 44.2754 63.5156 44.9727V46.0273H55.957V44.3398H61.0283V44.1465C61.0283 43.7949 60.9639 43.4814 60.835 43.2061C60.7119 42.9248 60.5244 42.7021 60.2725 42.5381C60.0205 42.374 59.6982 42.292 59.3057 42.292C58.9717 42.292 58.6846 42.3652 58.4443 42.5117C58.2041 42.6582 58.0078 42.8633 57.8555 43.127C57.709 43.3906 57.5977 43.7012 57.5215 44.0586C57.4512 44.4102 57.416 44.7969 57.416 45.2188V45.5703C57.416 45.9512 57.4688 46.3027 57.5742 46.625C57.6855 46.9473 57.8408 47.2256 58.04 47.46C58.2451 47.6943 58.4912 47.876 58.7783 48.0049C59.0713 48.1338 59.4023 48.1982 59.7715 48.1982C60.2285 48.1982 60.6533 48.1104 61.0459 47.9346C61.4443 47.7529 61.7871 47.4805 62.0742 47.1172L63.3047 48.4531C63.1055 48.7402 62.833 49.0156 62.4873 49.2793C62.1475 49.543 61.7373 49.7598 61.2568 49.9297C60.7764 50.0938 60.2285 50.1758 59.6133 50.1758ZM75.46 40.4902H77.7539V49.6836C77.7539 50.5508 77.5605 51.2861 77.1738 51.8896C76.793 52.499 76.2598 52.959 75.5742 53.2695C74.8887 53.5859 74.0918 53.7441 73.1836 53.7441C72.7852 53.7441 72.3633 53.6914 71.918 53.5859C71.4785 53.4805 71.0566 53.3164 70.6523 53.0938C70.2539 52.8711 69.9199 52.5898 69.6504 52.25L70.7666 50.7559C71.0596 51.0957 71.3994 51.3594 71.7861 51.5469C72.1729 51.7402 72.6006 51.8369 73.0693 51.8369C73.5264 51.8369 73.9131 51.752 74.2295 51.582C74.5459 51.418 74.7891 51.1748 74.959 50.8525C75.1289 50.5361 75.2139 50.1523 75.2139 49.7012V42.6875L75.46 40.4902ZM69.0615 45.3594V45.1748C69.0615 44.4482 69.1494 43.7891 69.3252 43.1973C69.5068 42.5996 69.7617 42.0869 70.0898 41.6592C70.4238 41.2314 70.8281 40.9004 71.3027 40.666C71.7773 40.4316 72.3135 40.3145 72.9111 40.3145C73.5439 40.3145 74.0742 40.4316 74.502 40.666C74.9297 40.9004 75.2812 41.2344 75.5566 41.668C75.832 42.0957 76.0459 42.6025 76.1982 43.1885C76.3564 43.7686 76.4795 44.4043 76.5674 45.0957V45.5C76.4795 46.1621 76.3477 46.7773 76.1719 47.3457C75.9961 47.9141 75.7646 48.4121 75.4775 48.8398C75.1904 49.2617 74.833 49.5898 74.4053 49.8242C73.9834 50.0586 73.4795 50.1758 72.8936 50.1758C72.3076 50.1758 71.7773 50.0557 71.3027 49.8154C70.834 49.5752 70.4326 49.2383 70.0986 48.8047C69.7646 48.3711 69.5068 47.8613 69.3252 47.2754C69.1494 46.6895 69.0615 46.0508 69.0615 45.3594ZM71.5928 45.1748V45.3594C71.5928 45.752 71.6309 46.1182 71.707 46.458C71.7832 46.7979 71.9004 47.0996 72.0586 47.3633C72.2227 47.6211 72.4248 47.8232 72.665 47.9697C72.9111 48.1104 73.2012 48.1807 73.5352 48.1807C73.998 48.1807 74.376 48.084 74.6689 47.8906C74.9619 47.6914 75.1816 47.4189 75.3281 47.0732C75.4746 46.7275 75.5596 46.3291 75.583 45.8779V44.7266C75.5713 44.3574 75.5215 44.0264 75.4336 43.7334C75.3457 43.4346 75.2227 43.1797 75.0645 42.9688C74.9062 42.7578 74.7012 42.5938 74.4492 42.4766C74.1973 42.3594 73.8984 42.3008 73.5527 42.3008C73.2188 42.3008 72.9287 42.377 72.6826 42.5293C72.4424 42.6758 72.2402 42.8779 72.0762 43.1357C71.918 43.3936 71.7979 43.6982 71.7158 44.0498C71.6338 44.3955 71.5928 44.7705 71.5928 45.1748ZM82.2539 42.5645V50H79.7227V40.4902H82.1045L82.2539 42.5645ZM85.1191 40.4287L85.0752 42.7754C84.9521 42.7578 84.8027 42.7432 84.627 42.7314C84.457 42.7139 84.3018 42.7051 84.1611 42.7051C83.8037 42.7051 83.4932 42.752 83.2295 42.8457C82.9717 42.9336 82.7549 43.0654 82.5791 43.2412C82.4092 43.417 82.2803 43.6309 82.1924 43.8828C82.1104 44.1348 82.0635 44.4219 82.0518 44.7441L81.542 44.5859C81.542 43.9707 81.6035 43.4053 81.7266 42.8896C81.8496 42.3682 82.0283 41.9141 82.2627 41.5273C82.5029 41.1406 82.7959 40.8418 83.1416 40.6309C83.4873 40.4199 83.8828 40.3145 84.3281 40.3145C84.4688 40.3145 84.6123 40.3262 84.7588 40.3496C84.9053 40.3672 85.0254 40.3936 85.1191 40.4287ZM90.5156 50.1758C89.7773 50.1758 89.1152 50.0586 88.5293 49.8242C87.9434 49.584 87.4453 49.2529 87.0352 48.8311C86.6309 48.4092 86.3203 47.9199 86.1035 47.3633C85.8867 46.8008 85.7783 46.2031 85.7783 45.5703V45.2188C85.7783 44.498 85.8809 43.8389 86.0859 43.2412C86.291 42.6436 86.584 42.125 86.9648 41.6855C87.3516 41.2461 87.8203 40.9092 88.3711 40.6748C88.9219 40.4346 89.543 40.3145 90.2344 40.3145C90.9082 40.3145 91.5059 40.4258 92.0273 40.6484C92.5488 40.8711 92.9854 41.1875 93.3369 41.5977C93.6943 42.0078 93.9639 42.5 94.1455 43.0742C94.3271 43.6426 94.418 44.2754 94.418 44.9727V46.0273H86.8594V44.3398H91.9307V44.1465C91.9307 43.7949 91.8662 43.4814 91.7373 43.2061C91.6143 42.9248 91.4268 42.7021 91.1748 42.5381C90.9229 42.374 90.6006 42.292 90.208 42.292C89.874 42.292 89.5869 42.3652 89.3467 42.5117C89.1064 42.6582 88.9102 42.8633 88.7578 43.127C88.6113 43.3906 88.5 43.7012 88.4238 44.0586C88.3535 44.4102 88.3184 44.7969 88.3184 45.2188V45.5703C88.3184 45.9512 88.3711 46.3027 88.4766 46.625C88.5879 46.9473 88.7432 47.2256 88.9424 47.46C89.1475 47.6943 89.3936 47.876 89.6807 48.0049C89.9736 48.1338 90.3047 48.1982 90.6738 48.1982C91.1309 48.1982 91.5557 48.1104 91.9482 47.9346C92.3467 47.7529 92.6895 47.4805 92.9766 47.1172L94.207 48.4531C94.0078 48.7402 93.7354 49.0156 93.3896 49.2793C93.0498 49.543 92.6396 49.7598 92.1592 49.9297C91.6787 50.0938 91.1309 50.1758 90.5156 50.1758ZM100.992 47.8555V43.6191C100.992 43.3145 100.942 43.0537 100.843 42.8369C100.743 42.6143 100.588 42.4414 100.377 42.3184C100.172 42.1953 99.9053 42.1338 99.5771 42.1338C99.2959 42.1338 99.0527 42.1836 98.8477 42.2832C98.6426 42.377 98.4844 42.5146 98.373 42.6963C98.2617 42.8721 98.2061 43.0801 98.2061 43.3203H95.6748C95.6748 42.916 95.7686 42.5322 95.9561 42.1689C96.1436 41.8057 96.416 41.4863 96.7734 41.2109C97.1309 40.9297 97.5557 40.71 98.0479 40.5518C98.5459 40.3936 99.1025 40.3145 99.7178 40.3145C100.456 40.3145 101.112 40.4375 101.687 40.6836C102.261 40.9297 102.712 41.2988 103.04 41.791C103.374 42.2832 103.541 42.8984 103.541 43.6367V47.7061C103.541 48.2275 103.573 48.6553 103.638 48.9893C103.702 49.3174 103.796 49.6045 103.919 49.8506V50H101.361C101.238 49.7422 101.145 49.4199 101.08 49.0332C101.021 48.6406 100.992 48.248 100.992 47.8555ZM101.326 44.208L101.344 45.6406H99.9287C99.5947 45.6406 99.3047 45.6787 99.0586 45.7549C98.8125 45.8311 98.6104 45.9395 98.4521 46.0801C98.2939 46.2148 98.1768 46.373 98.1006 46.5547C98.0303 46.7363 97.9951 46.9355 97.9951 47.1523C97.9951 47.3691 98.0449 47.5654 98.1445 47.7412C98.2441 47.9111 98.3877 48.0459 98.5752 48.1455C98.7627 48.2393 98.9824 48.2861 99.2344 48.2861C99.6152 48.2861 99.9463 48.21 100.228 48.0576C100.509 47.9053 100.726 47.7178 100.878 47.4951C101.036 47.2725 101.118 47.0615 101.124 46.8623L101.792 47.9346C101.698 48.1748 101.569 48.4238 101.405 48.6816C101.247 48.9395 101.045 49.1826 100.799 49.4111C100.553 49.6338 100.257 49.8184 99.9111 49.9648C99.5654 50.1055 99.1553 50.1758 98.6807 50.1758C98.0771 50.1758 97.5293 50.0557 97.0371 49.8154C96.5508 49.5693 96.1641 49.2324 95.877 48.8047C95.5957 48.3711 95.4551 47.8789 95.4551 47.3281C95.4551 46.8301 95.5488 46.3877 95.7363 46.001C95.9238 45.6143 96.1992 45.2891 96.5625 45.0254C96.9316 44.7559 97.3916 44.5537 97.9424 44.4189C98.4932 44.2783 99.1318 44.208 99.8584 44.208H101.326ZM110.15 40.4902V42.2832H104.613V40.4902H110.15ZM105.984 38.1436H108.516V47.1348C108.516 47.4102 108.551 47.6211 108.621 47.7676C108.697 47.9141 108.809 48.0166 108.955 48.0752C109.102 48.1279 109.286 48.1543 109.509 48.1543C109.667 48.1543 109.808 48.1484 109.931 48.1367C110.06 48.1191 110.168 48.1016 110.256 48.084L110.265 49.9473C110.048 50.0176 109.813 50.0732 109.562 50.1143C109.31 50.1553 109.031 50.1758 108.727 50.1758C108.17 50.1758 107.684 50.085 107.268 49.9033C106.857 49.7158 106.541 49.417 106.318 49.0068C106.096 48.5967 105.984 48.0576 105.984 47.3896V38.1436ZM115.969 50.1758C115.23 50.1758 114.568 50.0586 113.982 49.8242C113.396 49.584 112.898 49.2529 112.488 48.8311C112.084 48.4092 111.773 47.9199 111.557 47.3633C111.34 46.8008 111.231 46.2031 111.231 45.5703V45.2188C111.231 44.498 111.334 43.8389 111.539 43.2412C111.744 42.6436 112.037 42.125 112.418 41.6855C112.805 41.2461 113.273 40.9092 113.824 40.6748C114.375 40.4346 114.996 40.3145 115.688 40.3145C116.361 40.3145 116.959 40.4258 117.48 40.6484C118.002 40.8711 118.438 41.1875 118.79 41.5977C119.147 42.0078 119.417 42.5 119.599 43.0742C119.78 43.6426 119.871 44.2754 119.871 44.9727V46.0273H112.312V44.3398H117.384V44.1465C117.384 43.7949 117.319 43.4814 117.19 43.2061C117.067 42.9248 116.88 42.7021 116.628 42.5381C116.376 42.374 116.054 42.292 115.661 42.292C115.327 42.292 115.04 42.3652 114.8 42.5117C114.56 42.6582 114.363 42.8633 114.211 43.127C114.064 43.3906 113.953 43.7012 113.877 44.0586C113.807 44.4102 113.771 44.7969 113.771 45.2188V45.5703C113.771 45.9512 113.824 46.3027 113.93 46.625C114.041 46.9473 114.196 47.2256 114.396 47.46C114.601 47.6943 114.847 47.876 115.134 48.0049C115.427 48.1338 115.758 48.1982 116.127 48.1982C116.584 48.1982 117.009 48.1104 117.401 47.9346C117.8 47.7529 118.143 47.4805 118.43 47.1172L119.66 48.4531C119.461 48.7402 119.188 49.0156 118.843 49.2793C118.503 49.543 118.093 49.7598 117.612 49.9297C117.132 50.0938 116.584 50.1758 115.969 50.1758ZM126.454 47.3721C126.454 47.1904 126.401 47.0264 126.296 46.8799C126.19 46.7334 125.994 46.5986 125.707 46.4756C125.426 46.3467 125.019 46.2295 124.485 46.124C124.005 46.0186 123.557 45.8867 123.141 45.7285C122.73 45.5645 122.373 45.3682 122.068 45.1396C121.77 44.9111 121.535 44.6416 121.365 44.3311C121.195 44.0146 121.11 43.6543 121.11 43.25C121.11 42.8516 121.195 42.4766 121.365 42.125C121.541 41.7734 121.79 41.4629 122.112 41.1934C122.44 40.918 122.839 40.7041 123.308 40.5518C123.782 40.3936 124.315 40.3145 124.907 40.3145C125.733 40.3145 126.442 40.4463 127.034 40.71C127.632 40.9736 128.089 41.3369 128.405 41.7998C128.728 42.2568 128.889 42.7783 128.889 43.3643H126.357C126.357 43.1182 126.305 42.8984 126.199 42.7051C126.1 42.5059 125.941 42.3506 125.725 42.2393C125.514 42.1221 125.238 42.0635 124.898 42.0635C124.617 42.0635 124.374 42.1133 124.169 42.2129C123.964 42.3066 123.806 42.4355 123.694 42.5996C123.589 42.7578 123.536 42.9336 123.536 43.127C123.536 43.2734 123.565 43.4053 123.624 43.5225C123.688 43.6338 123.791 43.7363 123.932 43.8301C124.072 43.9238 124.254 44.0117 124.477 44.0938C124.705 44.1699 124.986 44.2402 125.32 44.3047C126.006 44.4453 126.618 44.6299 127.157 44.8584C127.696 45.0811 128.124 45.3857 128.44 45.7725C128.757 46.1533 128.915 46.6543 128.915 47.2754C128.915 47.6973 128.821 48.084 128.634 48.4355C128.446 48.7871 128.177 49.0947 127.825 49.3584C127.474 49.6162 127.052 49.8184 126.56 49.9648C126.073 50.1055 125.525 50.1758 124.916 50.1758C124.031 50.1758 123.281 50.0176 122.666 49.7012C122.057 49.3848 121.594 48.9834 121.277 48.4971C120.967 48.0049 120.812 47.501 120.812 46.9854H123.211C123.223 47.3311 123.311 47.6094 123.475 47.8203C123.645 48.0312 123.858 48.1836 124.116 48.2773C124.38 48.3711 124.664 48.418 124.969 48.418C125.297 48.418 125.569 48.374 125.786 48.2861C126.003 48.1924 126.167 48.0693 126.278 47.917C126.396 47.7588 126.454 47.5771 126.454 47.3721ZM135.217 40.4902V42.2832H129.68V40.4902H135.217ZM131.051 38.1436H133.582V47.1348C133.582 47.4102 133.617 47.6211 133.688 47.7676C133.764 47.9141 133.875 48.0166 134.021 48.0752C134.168 48.1279 134.353 48.1543 134.575 48.1543C134.733 48.1543 134.874 48.1484 134.997 48.1367C135.126 48.1191 135.234 48.1016 135.322 48.084L135.331 49.9473C135.114 50.0176 134.88 50.0732 134.628 50.1143C134.376 50.1553 134.098 50.1758 133.793 50.1758C133.236 50.1758 132.75 50.085 132.334 49.9033C131.924 49.7158 131.607 49.417 131.385 49.0068C131.162 48.5967 131.051 48.0576 131.051 47.3896V38.1436ZM36.7002 68.5391L38.6777 61.4902H40.2861L39.7676 64.2588L37.79 71H36.4453L36.7002 68.5391ZM35.6982 61.4902L37.1133 68.5303L37.2451 71H35.6631L33.2549 61.4902H35.6982ZM42.0967 68.416L43.4766 61.4902H45.9287L43.5205 71H41.9473L42.0967 68.416ZM40.5059 61.4902L42.4746 68.4863L42.7471 71H41.3936L39.416 64.2676L38.915 61.4902H40.5059ZM51.5801 71.1758C50.8418 71.1758 50.1797 71.0586 49.5938 70.8242C49.0078 70.584 48.5098 70.2529 48.0996 69.8311C47.6953 69.4092 47.3848 68.9199 47.168 68.3633C46.9512 67.8008 46.8428 67.2031 46.8428 66.5703V66.2188C46.8428 65.498 46.9453 64.8389 47.1504 64.2412C47.3555 63.6436 47.6484 63.125 48.0293 62.6855C48.416 62.2461 48.8848 61.9092 49.4355 61.6748C49.9863 61.4346 50.6074 61.3145 51.2988 61.3145C51.9727 61.3145 52.5703 61.4258 53.0918 61.6484C53.6133 61.8711 54.0498 62.1875 54.4014 62.5977C54.7588 63.0078 55.0283 63.5 55.21 64.0742C55.3916 64.6426 55.4824 65.2754 55.4824 65.9727V67.0273H47.9238V65.3398H52.9951V65.1465C52.9951 64.7949 52.9307 64.4814 52.8018 64.2061C52.6787 63.9248 52.4912 63.7021 52.2393 63.5381C51.9873 63.374 51.665 63.292 51.2725 63.292C50.9385 63.292 50.6514 63.3652 50.4111 63.5117C50.1709 63.6582 49.9746 63.8633 49.8223 64.127C49.6758 64.3906 49.5645 64.7012 49.4883 65.0586C49.418 65.4102 49.3828 65.7969 49.3828 66.2188V66.5703C49.3828 66.9512 49.4355 67.3027 49.541 67.625C49.6523 67.9473 49.8076 68.2256 50.0068 68.46C50.2119 68.6943 50.458 68.876 50.7451 69.0049C51.0381 69.1338 51.3691 69.1982 51.7383 69.1982C52.1953 69.1982 52.6201 69.1104 53.0127 68.9346C53.4111 68.7529 53.7539 68.4805 54.041 68.1172L55.2715 69.4531C55.0723 69.7402 54.7998 70.0156 54.4541 70.2793C54.1143 70.543 53.7041 70.7598 53.2236 70.9297C52.7432 71.0938 52.1953 71.1758 51.5801 71.1758ZM62.0566 68.8555V64.6191C62.0566 64.3145 62.0068 64.0537 61.9072 63.8369C61.8076 63.6143 61.6523 63.4414 61.4414 63.3184C61.2363 63.1953 60.9697 63.1338 60.6416 63.1338C60.3604 63.1338 60.1172 63.1836 59.9121 63.2832C59.707 63.377 59.5488 63.5146 59.4375 63.6963C59.3262 63.8721 59.2705 64.0801 59.2705 64.3203H56.7393C56.7393 63.916 56.833 63.5322 57.0205 63.1689C57.208 62.8057 57.4805 62.4863 57.8379 62.2109C58.1953 61.9297 58.6201 61.71 59.1123 61.5518C59.6104 61.3936 60.167 61.3145 60.7822 61.3145C61.5205 61.3145 62.1768 61.4375 62.751 61.6836C63.3252 61.9297 63.7764 62.2988 64.1045 62.791C64.4385 63.2832 64.6055 63.8984 64.6055 64.6367V68.7061C64.6055 69.2275 64.6377 69.6553 64.7021 69.9893C64.7666 70.3174 64.8604 70.6045 64.9834 70.8506V71H62.4258C62.3027 70.7422 62.209 70.4199 62.1445 70.0332C62.0859 69.6406 62.0566 69.248 62.0566 68.8555ZM62.3906 65.208L62.4082 66.6406H60.9932C60.6592 66.6406 60.3691 66.6787 60.123 66.7549C59.877 66.8311 59.6748 66.9395 59.5166 67.0801C59.3584 67.2148 59.2412 67.373 59.165 67.5547C59.0947 67.7363 59.0596 67.9355 59.0596 68.1523C59.0596 68.3691 59.1094 68.5654 59.209 68.7412C59.3086 68.9111 59.4521 69.0459 59.6396 69.1455C59.8271 69.2393 60.0469 69.2861 60.2988 69.2861C60.6797 69.2861 61.0107 69.21 61.292 69.0576C61.5732 68.9053 61.79 68.7178 61.9424 68.4951C62.1006 68.2725 62.1826 68.0615 62.1885 67.8623L62.8564 68.9346C62.7627 69.1748 62.6338 69.4238 62.4697 69.6816C62.3115 69.9395 62.1094 70.1826 61.8633 70.4111C61.6172 70.6338 61.3213 70.8184 60.9756 70.9648C60.6299 71.1055 60.2197 71.1758 59.7451 71.1758C59.1416 71.1758 58.5938 71.0557 58.1016 70.8154C57.6152 70.5693 57.2285 70.2324 56.9414 69.8047C56.6602 69.3711 56.5195 68.8789 56.5195 68.3281C56.5195 67.8301 56.6133 67.3877 56.8008 67.001C56.9883 66.6143 57.2637 66.2891 57.627 66.0254C57.9961 65.7559 58.4561 65.5537 59.0068 65.4189C59.5576 65.2783 60.1963 65.208 60.9229 65.208H62.3906ZM69.2285 57.5V71H66.6885V57.5H69.2285ZM75.9785 61.4902V63.2832H70.4414V61.4902H75.9785ZM71.8125 59.1436H74.3438V68.1348C74.3438 68.4102 74.3789 68.6211 74.4492 68.7676C74.5254 68.9141 74.6367 69.0166 74.7832 69.0752C74.9297 69.1279 75.1143 69.1543 75.3369 69.1543C75.4951 69.1543 75.6357 69.1484 75.7588 69.1367C75.8877 69.1191 75.9961 69.1016 76.084 69.084L76.0928 70.9473C75.876 71.0176 75.6416 71.0732 75.3896 71.1143C75.1377 71.1553 74.8594 71.1758 74.5547 71.1758C73.998 71.1758 73.5117 71.085 73.0957 70.9033C72.6855 70.7158 72.3691 70.417 72.1465 70.0068C71.9238 69.5967 71.8125 69.0576 71.8125 68.3896V59.1436ZM79.8896 57.5V71H77.3584V57.5H79.8896ZM79.5293 65.9111H78.835C78.8408 65.249 78.9287 64.6396 79.0986 64.083C79.2686 63.5205 79.5117 63.0342 79.8281 62.624C80.1445 62.208 80.5225 61.8857 80.9619 61.6572C81.4072 61.4287 81.8994 61.3145 82.4385 61.3145C82.9072 61.3145 83.332 61.3818 83.7129 61.5166C84.0996 61.6455 84.4307 61.8564 84.7061 62.1494C84.9873 62.4365 85.2041 62.8145 85.3564 63.2832C85.5088 63.752 85.585 64.3203 85.585 64.9883V71H83.0361V64.9707C83.0361 64.5488 82.9746 64.2178 82.8516 63.9775C82.7344 63.7314 82.5615 63.5586 82.333 63.459C82.1104 63.3535 81.835 63.3008 81.5068 63.3008C81.1436 63.3008 80.833 63.3682 80.5752 63.5029C80.3232 63.6377 80.1211 63.8252 79.9688 64.0654C79.8164 64.2998 79.7051 64.5752 79.6348 64.8916C79.5645 65.208 79.5293 65.5479 79.5293 65.9111ZM94.6641 61.4902V71H92.124V61.4902H94.6641ZM91.9658 59.0117C91.9658 58.6426 92.0947 58.3379 92.3525 58.0977C92.6104 57.8574 92.9561 57.7373 93.3896 57.7373C93.8174 57.7373 94.1602 57.8574 94.418 58.0977C94.6816 58.3379 94.8135 58.6426 94.8135 59.0117C94.8135 59.3809 94.6816 59.6855 94.418 59.9258C94.1602 60.166 93.8174 60.2861 93.3896 60.2861C92.9561 60.2861 92.6104 60.166 92.3525 59.9258C92.0947 59.6855 91.9658 59.3809 91.9658 59.0117ZM101.897 68.3721C101.897 68.1904 101.845 68.0264 101.739 67.8799C101.634 67.7334 101.438 67.5986 101.15 67.4756C100.869 67.3467 100.462 67.2295 99.9287 67.124C99.4482 67.0186 99 66.8867 98.584 66.7285C98.1738 66.5645 97.8164 66.3682 97.5117 66.1396C97.2129 65.9111 96.9785 65.6416 96.8086 65.3311C96.6387 65.0146 96.5537 64.6543 96.5537 64.25C96.5537 63.8516 96.6387 63.4766 96.8086 63.125C96.9844 62.7734 97.2334 62.4629 97.5557 62.1934C97.8838 61.918 98.2822 61.7041 98.751 61.5518C99.2256 61.3936 99.7588 61.3145 100.351 61.3145C101.177 61.3145 101.886 61.4463 102.478 61.71C103.075 61.9736 103.532 62.3369 103.849 62.7998C104.171 63.2568 104.332 63.7783 104.332 64.3643H101.801C101.801 64.1182 101.748 63.8984 101.643 63.7051C101.543 63.5059 101.385 63.3506 101.168 63.2393C100.957 63.1221 100.682 63.0635 100.342 63.0635C100.061 63.0635 99.8174 63.1133 99.6123 63.2129C99.4072 63.3066 99.249 63.4355 99.1377 63.5996C99.0322 63.7578 98.9795 63.9336 98.9795 64.127C98.9795 64.2734 99.0088 64.4053 99.0674 64.5225C99.1318 64.6338 99.2344 64.7363 99.375 64.8301C99.5156 64.9238 99.6973 65.0117 99.9199 65.0938C100.148 65.1699 100.43 65.2402 100.764 65.3047C101.449 65.4453 102.062 65.6299 102.601 65.8584C103.14 66.0811 103.567 66.3857 103.884 66.7725C104.2 67.1533 104.358 67.6543 104.358 68.2754C104.358 68.6973 104.265 69.084 104.077 69.4355C103.89 69.7871 103.62 70.0947 103.269 70.3584C102.917 70.6162 102.495 70.8184 102.003 70.9648C101.517 71.1055 100.969 71.1758 100.359 71.1758C99.4746 71.1758 98.7246 71.0176 98.1094 70.7012C97.5 70.3848 97.0371 69.9834 96.7207 69.4971C96.4102 69.0049 96.2549 68.501 96.2549 67.9854H98.6543C98.666 68.3311 98.7539 68.6094 98.918 68.8203C99.0879 69.0312 99.3018 69.1836 99.5596 69.2773C99.8232 69.3711 100.107 69.418 100.412 69.418C100.74 69.418 101.013 69.374 101.229 69.2861C101.446 69.1924 101.61 69.0693 101.722 68.917C101.839 68.7588 101.897 68.5771 101.897 68.3721ZM115.143 61.4902V63.2832H109.605V61.4902H115.143ZM110.977 59.1436H113.508V68.1348C113.508 68.4102 113.543 68.6211 113.613 68.7676C113.689 68.9141 113.801 69.0166 113.947 69.0752C114.094 69.1279 114.278 69.1543 114.501 69.1543C114.659 69.1543 114.8 69.1484 114.923 69.1367C115.052 69.1191 115.16 69.1016 115.248 69.084L115.257 70.9473C115.04 71.0176 114.806 71.0732 114.554 71.1143C114.302 71.1553 114.023 71.1758 113.719 71.1758C113.162 71.1758 112.676 71.085 112.26 70.9033C111.85 70.7158 111.533 70.417 111.311 70.0068C111.088 69.5967 110.977 69.0576 110.977 68.3896V59.1436ZM115.951 66.3418V66.1572C115.951 65.46 116.051 64.8184 116.25 64.2324C116.449 63.6406 116.739 63.1279 117.12 62.6943C117.501 62.2607 117.97 61.9238 118.526 61.6836C119.083 61.4375 119.722 61.3145 120.442 61.3145C121.163 61.3145 121.805 61.4375 122.367 61.6836C122.93 61.9238 123.401 62.2607 123.782 62.6943C124.169 63.1279 124.462 63.6406 124.661 64.2324C124.86 64.8184 124.96 65.46 124.96 66.1572V66.3418C124.96 67.0332 124.86 67.6748 124.661 68.2666C124.462 68.8525 124.169 69.3652 123.782 69.8047C123.401 70.2383 122.933 70.5752 122.376 70.8154C121.819 71.0557 121.181 71.1758 120.46 71.1758C119.739 71.1758 119.098 71.0557 118.535 70.8154C117.979 70.5752 117.507 70.2383 117.12 69.8047C116.739 69.3652 116.449 68.8525 116.25 68.2666C116.051 67.6748 115.951 67.0332 115.951 66.3418ZM118.482 66.1572V66.3418C118.482 66.7402 118.518 67.1123 118.588 67.458C118.658 67.8037 118.77 68.1084 118.922 68.3721C119.08 68.6299 119.285 68.832 119.537 68.9785C119.789 69.125 120.097 69.1982 120.46 69.1982C120.812 69.1982 121.113 69.125 121.365 68.9785C121.617 68.832 121.819 68.6299 121.972 68.3721C122.124 68.1084 122.235 67.8037 122.306 67.458C122.382 67.1123 122.42 66.7402 122.42 66.3418V66.1572C122.42 65.7705 122.382 65.4072 122.306 65.0674C122.235 64.7217 122.121 64.417 121.963 64.1533C121.811 63.8838 121.608 63.6729 121.356 63.5205C121.104 63.3682 120.8 63.292 120.442 63.292C120.085 63.292 119.78 63.3682 119.528 63.5205C119.282 63.6729 119.08 63.8838 118.922 64.1533C118.77 64.417 118.658 64.7217 118.588 65.0674C118.518 65.4072 118.482 65.7705 118.482 66.1572ZM36.6562 78.5V92H34.1162V78.5H36.6562ZM41.4199 82.4902V92H38.8799V82.4902H41.4199ZM38.7217 80.0117C38.7217 79.6426 38.8506 79.3379 39.1084 79.0977C39.3662 78.8574 39.7119 78.7373 40.1455 78.7373C40.5732 78.7373 40.916 78.8574 41.1738 79.0977C41.4375 79.3379 41.5693 79.6426 41.5693 80.0117C41.5693 80.3809 41.4375 80.6855 41.1738 80.9258C40.916 81.166 40.5732 81.2861 40.1455 81.2861C39.7119 81.2861 39.3662 81.166 39.1084 80.9258C38.8506 80.6855 38.7217 80.3809 38.7217 80.0117ZM46.7461 90.1543L48.8555 82.4902H51.501L48.293 92H46.6934L46.7461 90.1543ZM45.2959 82.4902L47.4141 90.1631L47.458 92H45.8496L42.6416 82.4902H45.2959ZM56.8887 92.1758C56.1504 92.1758 55.4883 92.0586 54.9023 91.8242C54.3164 91.584 53.8184 91.2529 53.4082 90.8311C53.0039 90.4092 52.6934 89.9199 52.4766 89.3633C52.2598 88.8008 52.1514 88.2031 52.1514 87.5703V87.2188C52.1514 86.498 52.2539 85.8389 52.459 85.2412C52.6641 84.6436 52.957 84.125 53.3379 83.6855C53.7246 83.2461 54.1934 82.9092 54.7441 82.6748C55.2949 82.4346 55.916 82.3145 56.6074 82.3145C57.2812 82.3145 57.8789 82.4258 58.4004 82.6484C58.9219 82.8711 59.3584 83.1875 59.71 83.5977C60.0674 84.0078 60.3369 84.5 60.5186 85.0742C60.7002 85.6426 60.791 86.2754 60.791 86.9727V88.0273H53.2324V86.3398H58.3037V86.1465C58.3037 85.7949 58.2393 85.4814 58.1104 85.2061C57.9873 84.9248 57.7998 84.7021 57.5479 84.5381C57.2959 84.374 56.9736 84.292 56.5811 84.292C56.2471 84.292 55.96 84.3652 55.7197 84.5117C55.4795 84.6582 55.2832 84.8633 55.1309 85.127C54.9844 85.3906 54.873 85.7012 54.7969 86.0586C54.7266 86.4102 54.6914 86.7969 54.6914 87.2188V87.5703C54.6914 87.9512 54.7441 88.3027 54.8496 88.625C54.9609 88.9473 55.1162 89.2256 55.3154 89.46C55.5205 89.6943 55.7666 89.876 56.0537 90.0049C56.3467 90.1338 56.6777 90.1982 57.0469 90.1982C57.5039 90.1982 57.9287 90.1104 58.3213 89.9346C58.7197 89.7529 59.0625 89.4805 59.3496 89.1172L60.5801 90.4531C60.3809 90.7402 60.1084 91.0156 59.7627 91.2793C59.4229 91.543 59.0127 91.7598 58.5322 91.9297C58.0518 92.0938 57.5039 92.1758 56.8887 92.1758ZM70.6436 90.1982C70.9541 90.1982 71.2295 90.1396 71.4697 90.0225C71.71 89.8994 71.8975 89.7295 72.0322 89.5127C72.1729 89.29 72.2461 89.0293 72.252 88.7305H74.6338C74.6279 89.3984 74.4492 89.9932 74.0977 90.5146C73.7461 91.0303 73.2744 91.4375 72.6826 91.7363C72.0908 92.0293 71.4287 92.1758 70.6963 92.1758C69.958 92.1758 69.3135 92.0527 68.7627 91.8066C68.2178 91.5605 67.7637 91.2207 67.4004 90.7871C67.0371 90.3477 66.7646 89.8379 66.583 89.2578C66.4014 88.6719 66.3105 88.0449 66.3105 87.377V87.1221C66.3105 86.4482 66.4014 85.8213 66.583 85.2412C66.7646 84.6553 67.0371 84.1455 67.4004 83.7119C67.7637 83.2725 68.2178 82.9297 68.7627 82.6836C69.3076 82.4375 69.9463 82.3145 70.6787 82.3145C71.458 82.3145 72.1406 82.4639 72.7266 82.7627C73.3184 83.0615 73.7812 83.4893 74.1152 84.0459C74.4551 84.5967 74.6279 85.25 74.6338 86.0059H72.252C72.2461 85.6895 72.1787 85.4023 72.0498 85.1445C71.9268 84.8867 71.7451 84.6816 71.5049 84.5293C71.2705 84.3711 70.9805 84.292 70.6348 84.292C70.2656 84.292 69.9639 84.3711 69.7295 84.5293C69.4951 84.6816 69.3135 84.8926 69.1846 85.1621C69.0557 85.4258 68.9648 85.7275 68.9121 86.0674C68.8652 86.4014 68.8418 86.7529 68.8418 87.1221V87.377C68.8418 87.7461 68.8652 88.1006 68.9121 88.4404C68.959 88.7803 69.0469 89.082 69.1758 89.3457C69.3105 89.6094 69.4951 89.8174 69.7295 89.9697C69.9639 90.1221 70.2686 90.1982 70.6436 90.1982ZM75.6973 87.3418V87.1572C75.6973 86.46 75.7969 85.8184 75.9961 85.2324C76.1953 84.6406 76.4854 84.1279 76.8662 83.6943C77.2471 83.2607 77.7158 82.9238 78.2725 82.6836C78.8291 82.4375 79.4678 82.3145 80.1885 82.3145C80.9092 82.3145 81.5508 82.4375 82.1133 82.6836C82.6758 82.9238 83.1475 83.2607 83.5283 83.6943C83.915 84.1279 84.208 84.6406 84.4072 85.2324C84.6064 85.8184 84.7061 86.46 84.7061 87.1572V87.3418C84.7061 88.0332 84.6064 88.6748 84.4072 89.2666C84.208 89.8525 83.915 90.3652 83.5283 90.8047C83.1475 91.2383 82.6787 91.5752 82.1221 91.8154C81.5654 92.0557 80.9268 92.1758 80.2061 92.1758C79.4854 92.1758 78.8438 92.0557 78.2812 91.8154C77.7246 91.5752 77.2529 91.2383 76.8662 90.8047C76.4854 90.3652 76.1953 89.8525 75.9961 89.2666C75.7969 88.6748 75.6973 88.0332 75.6973 87.3418ZM78.2285 87.1572V87.3418C78.2285 87.7402 78.2637 88.1123 78.334 88.458C78.4043 88.8037 78.5156 89.1084 78.668 89.3721C78.8262 89.6299 79.0312 89.832 79.2832 89.9785C79.5352 90.125 79.8428 90.1982 80.2061 90.1982C80.5576 90.1982 80.8594 90.125 81.1113 89.9785C81.3633 89.832 81.5654 89.6299 81.7178 89.3721C81.8701 89.1084 81.9814 88.8037 82.0518 88.458C82.1279 88.1123 82.166 87.7402 82.166 87.3418V87.1572C82.166 86.7705 82.1279 86.4072 82.0518 86.0674C81.9814 85.7217 81.8672 85.417 81.709 85.1533C81.5566 84.8838 81.3545 84.6729 81.1025 84.5205C80.8506 84.3682 80.5459 84.292 80.1885 84.292C79.8311 84.292 79.5264 84.3682 79.2744 84.5205C79.0283 84.6729 78.8262 84.8838 78.668 85.1533C78.5156 85.417 78.4043 85.7217 78.334 86.0674C78.2637 86.4072 78.2285 86.7705 78.2285 87.1572ZM88.7402 84.5205V92H86.209V82.4902H88.582L88.7402 84.5205ZM88.3711 86.9111H87.6855C87.6855 86.208 87.7764 85.5752 87.958 85.0127C88.1396 84.4443 88.3945 83.9609 88.7227 83.5625C89.0508 83.1582 89.4404 82.8506 89.8916 82.6396C90.3486 82.4229 90.8584 82.3145 91.4209 82.3145C91.8662 82.3145 92.2734 82.3789 92.6426 82.5078C93.0117 82.6367 93.3281 82.8418 93.5918 83.123C93.8613 83.4043 94.0664 83.7764 94.207 84.2393C94.3535 84.7021 94.4268 85.2676 94.4268 85.9355V92H91.8779V85.9268C91.8779 85.5049 91.8193 85.1768 91.7021 84.9424C91.585 84.708 91.4121 84.5439 91.1836 84.4502C90.9609 84.3506 90.6855 84.3008 90.3574 84.3008C90.0176 84.3008 89.7217 84.3682 89.4697 84.5029C89.2236 84.6377 89.0186 84.8252 88.8545 85.0654C88.6963 85.2998 88.5762 85.5752 88.4941 85.8916C88.4121 86.208 88.3711 86.5479 88.3711 86.9111ZM101.01 82.4902V84.2832H95.4727V82.4902H101.01ZM96.8438 80.1436H99.375V89.1348C99.375 89.4102 99.4102 89.6211 99.4805 89.7676C99.5566 89.9141 99.668 90.0166 99.8145 90.0752C99.9609 90.1279 100.146 90.1543 100.368 90.1543C100.526 90.1543 100.667 90.1484 100.79 90.1367C100.919 90.1191 101.027 90.1016 101.115 90.084L101.124 91.9473C100.907 92.0176 100.673 92.0732 100.421 92.1143C100.169 92.1553 99.8906 92.1758 99.5859 92.1758C99.0293 92.1758 98.543 92.085 98.127 91.9033C97.7168 91.7158 97.4004 91.417 97.1777 91.0068C96.9551 90.5967 96.8438 90.0576 96.8438 89.3896V80.1436ZM106.828 92.1758C106.09 92.1758 105.428 92.0586 104.842 91.8242C104.256 91.584 103.758 91.2529 103.348 90.8311C102.943 90.4092 102.633 89.9199 102.416 89.3633C102.199 88.8008 102.091 88.2031 102.091 87.5703V87.2188C102.091 86.498 102.193 85.8389 102.398 85.2412C102.604 84.6436 102.896 84.125 103.277 83.6855C103.664 83.2461 104.133 82.9092 104.684 82.6748C105.234 82.4346 105.855 82.3145 106.547 82.3145C107.221 82.3145 107.818 82.4258 108.34 82.6484C108.861 82.8711 109.298 83.1875 109.649 83.5977C110.007 84.0078 110.276 84.5 110.458 85.0742C110.64 85.6426 110.73 86.2754 110.73 86.9727V88.0273H103.172V86.3398H108.243V86.1465C108.243 85.7949 108.179 85.4814 108.05 85.2061C107.927 84.9248 107.739 84.7021 107.487 84.5381C107.235 84.374 106.913 84.292 106.521 84.292C106.187 84.292 105.899 84.3652 105.659 84.5117C105.419 84.6582 105.223 84.8633 105.07 85.127C104.924 85.3906 104.812 85.7012 104.736 86.0586C104.666 86.4102 104.631 86.7969 104.631 87.2188V87.5703C104.631 87.9512 104.684 88.3027 104.789 88.625C104.9 88.9473 105.056 89.2256 105.255 89.46C105.46 89.6943 105.706 89.876 105.993 90.0049C106.286 90.1338 106.617 90.1982 106.986 90.1982C107.443 90.1982 107.868 90.1104 108.261 89.9346C108.659 89.7529 109.002 89.4805 109.289 89.1172L110.52 90.4531C110.32 90.7402 110.048 91.0156 109.702 91.2793C109.362 91.543 108.952 91.7598 108.472 91.9297C107.991 92.0938 107.443 92.1758 106.828 92.1758ZM114.65 84.5205V92H112.119V82.4902H114.492L114.65 84.5205ZM114.281 86.9111H113.596C113.596 86.208 113.687 85.5752 113.868 85.0127C114.05 84.4443 114.305 83.9609 114.633 83.5625C114.961 83.1582 115.351 82.8506 115.802 82.6396C116.259 82.4229 116.769 82.3145 117.331 82.3145C117.776 82.3145 118.184 82.3789 118.553 82.5078C118.922 82.6367 119.238 82.8418 119.502 83.123C119.771 83.4043 119.977 83.7764 120.117 84.2393C120.264 84.7021 120.337 85.2676 120.337 85.9355V92H117.788V85.9268C117.788 85.5049 117.729 85.1768 117.612 84.9424C117.495 84.708 117.322 84.5439 117.094 84.4502C116.871 84.3506 116.596 84.3008 116.268 84.3008C115.928 84.3008 115.632 84.3682 115.38 84.5029C115.134 84.6377 114.929 84.8252 114.765 85.0654C114.606 85.2998 114.486 85.5752 114.404 85.8916C114.322 86.208 114.281 86.5479 114.281 86.9111ZM126.92 82.4902V84.2832H121.383V82.4902H126.92ZM122.754 80.1436H125.285V89.1348C125.285 89.4102 125.32 89.6211 125.391 89.7676C125.467 89.9141 125.578 90.0166 125.725 90.0752C125.871 90.1279 126.056 90.1543 126.278 90.1543C126.437 90.1543 126.577 90.1484 126.7 90.1367C126.829 90.1191 126.938 90.1016 127.025 90.084L127.034 91.9473C126.817 92.0176 126.583 92.0732 126.331 92.1143C126.079 92.1553 125.801 92.1758 125.496 92.1758C124.939 92.1758 124.453 92.085 124.037 91.9033C123.627 91.7158 123.311 91.417 123.088 91.0068C122.865 90.5967 122.754 90.0576 122.754 89.3896V80.1436ZM36.7002 110.539L38.6777 103.49H40.2861L39.7676 106.259L37.79 113H36.4453L36.7002 110.539ZM35.6982 103.49L37.1133 110.53L37.2451 113H35.6631L33.2549 103.49H35.6982ZM42.0967 110.416L43.4766 103.49H45.9287L43.5205 113H41.9473L42.0967 110.416ZM40.5059 103.49L42.4746 110.486L42.7471 113H41.3936L39.416 106.268L38.915 103.49H40.5059ZM49.875 103.49V113H47.335V103.49H49.875ZM47.1768 101.012C47.1768 100.643 47.3057 100.338 47.5635 100.098C47.8213 99.8574 48.167 99.7373 48.6006 99.7373C49.0283 99.7373 49.3711 99.8574 49.6289 100.098C49.8926 100.338 50.0244 100.643 50.0244 101.012C50.0244 101.381 49.8926 101.686 49.6289 101.926C49.3711 102.166 49.0283 102.286 48.6006 102.286C48.167 102.286 47.8213 102.166 47.5635 101.926C47.3057 101.686 47.1768 101.381 47.1768 101.012ZM56.625 103.49V105.283H51.0879V103.49H56.625ZM52.459 101.144H54.9902V110.135C54.9902 110.41 55.0254 110.621 55.0957 110.768C55.1719 110.914 55.2832 111.017 55.4297 111.075C55.5762 111.128 55.7607 111.154 55.9834 111.154C56.1416 111.154 56.2822 111.148 56.4053 111.137C56.5342 111.119 56.6426 111.102 56.7305 111.084L56.7393 112.947C56.5225 113.018 56.2881 113.073 56.0361 113.114C55.7842 113.155 55.5059 113.176 55.2012 113.176C54.6445 113.176 54.1582 113.085 53.7422 112.903C53.332 112.716 53.0156 112.417 52.793 112.007C52.5703 111.597 52.459 111.058 52.459 110.39V101.144ZM60.5361 99.5V113H58.0049V99.5H60.5361ZM60.1758 107.911H59.4814C59.4873 107.249 59.5752 106.64 59.7451 106.083C59.915 105.521 60.1582 105.034 60.4746 104.624C60.791 104.208 61.1689 103.886 61.6084 103.657C62.0537 103.429 62.5459 103.314 63.085 103.314C63.5537 103.314 63.9785 103.382 64.3594 103.517C64.7461 103.646 65.0771 103.856 65.3525 104.149C65.6338 104.437 65.8506 104.814 66.0029 105.283C66.1553 105.752 66.2314 106.32 66.2314 106.988V113H63.6826V106.971C63.6826 106.549 63.6211 106.218 63.498 105.978C63.3809 105.731 63.208 105.559 62.9795 105.459C62.7568 105.354 62.4814 105.301 62.1533 105.301C61.79 105.301 61.4795 105.368 61.2217 105.503C60.9697 105.638 60.7676 105.825 60.6152 106.065C60.4629 106.3 60.3516 106.575 60.2812 106.892C60.2109 107.208 60.1758 107.548 60.1758 107.911ZM75.3105 99.5V113H72.7705V99.5H75.3105ZM80.0742 103.49V113H77.5342V103.49H80.0742ZM77.376 101.012C77.376 100.643 77.5049 100.338 77.7627 100.098C78.0205 99.8574 78.3662 99.7373 78.7998 99.7373C79.2275 99.7373 79.5703 99.8574 79.8281 100.098C80.0918 100.338 80.2236 100.643 80.2236 101.012C80.2236 101.381 80.0918 101.686 79.8281 101.926C79.5703 102.166 79.2275 102.286 78.7998 102.286C78.3662 102.286 78.0205 102.166 77.7627 101.926C77.5049 101.686 77.376 101.381 77.376 101.012ZM86.8242 103.49V105.283H81.2871V103.49H86.8242ZM82.6582 101.144H85.1895V110.135C85.1895 110.41 85.2246 110.621 85.2949 110.768C85.3711 110.914 85.4824 111.017 85.6289 111.075C85.7754 111.128 85.96 111.154 86.1826 111.154C86.3408 111.154 86.4814 111.148 86.6045 111.137C86.7334 111.119 86.8418 111.102 86.9297 111.084L86.9385 112.947C86.7217 113.018 86.4873 113.073 86.2354 113.114C85.9834 113.155 85.7051 113.176 85.4004 113.176C84.8438 113.176 84.3574 113.085 83.9414 112.903C83.5312 112.716 83.2148 112.417 82.9922 112.007C82.7695 111.597 82.6582 111.058 82.6582 110.39V101.144ZM92.9238 103.49V105.283H87.3867V103.49H92.9238ZM88.7578 101.144H91.2891V110.135C91.2891 110.41 91.3242 110.621 91.3945 110.768C91.4707 110.914 91.582 111.017 91.7285 111.075C91.875 111.128 92.0596 111.154 92.2822 111.154C92.4404 111.154 92.5811 111.148 92.7041 111.137C92.833 111.119 92.9414 111.102 93.0293 111.084L93.0381 112.947C92.8213 113.018 92.5869 113.073 92.335 113.114C92.083 113.155 91.8047 113.176 91.5 113.176C90.9434 113.176 90.457 113.085 90.041 112.903C89.6309 112.716 89.3145 112.417 89.0918 112.007C88.8691 111.597 88.7578 111.058 88.7578 110.39V101.144ZM97.0371 99.5V113H94.4971V99.5H97.0371ZM103.506 113.176C102.768 113.176 102.105 113.059 101.52 112.824C100.934 112.584 100.436 112.253 100.025 111.831C99.6211 111.409 99.3105 110.92 99.0938 110.363C98.877 109.801 98.7686 109.203 98.7686 108.57V108.219C98.7686 107.498 98.8711 106.839 99.0762 106.241C99.2812 105.644 99.5742 105.125 99.9551 104.686C100.342 104.246 100.811 103.909 101.361 103.675C101.912 103.435 102.533 103.314 103.225 103.314C103.898 103.314 104.496 103.426 105.018 103.648C105.539 103.871 105.976 104.188 106.327 104.598C106.685 105.008 106.954 105.5 107.136 106.074C107.317 106.643 107.408 107.275 107.408 107.973V109.027H99.8496V107.34H104.921V107.146C104.921 106.795 104.856 106.481 104.728 106.206C104.604 105.925 104.417 105.702 104.165 105.538C103.913 105.374 103.591 105.292 103.198 105.292C102.864 105.292 102.577 105.365 102.337 105.512C102.097 105.658 101.9 105.863 101.748 106.127C101.602 106.391 101.49 106.701 101.414 107.059C101.344 107.41 101.309 107.797 101.309 108.219V108.57C101.309 108.951 101.361 109.303 101.467 109.625C101.578 109.947 101.733 110.226 101.933 110.46C102.138 110.694 102.384 110.876 102.671 111.005C102.964 111.134 103.295 111.198 103.664 111.198C104.121 111.198 104.546 111.11 104.938 110.935C105.337 110.753 105.68 110.48 105.967 110.117L107.197 111.453C106.998 111.74 106.726 112.016 106.38 112.279C106.04 112.543 105.63 112.76 105.149 112.93C104.669 113.094 104.121 113.176 103.506 113.176ZM108.973 111.778C108.973 111.403 109.102 111.09 109.359 110.838C109.623 110.586 109.972 110.46 110.405 110.46C110.839 110.46 111.185 110.586 111.442 110.838C111.706 111.09 111.838 111.403 111.838 111.778C111.838 112.153 111.706 112.467 111.442 112.719C111.185 112.971 110.839 113.097 110.405 113.097C109.972 113.097 109.623 112.971 109.359 112.719C109.102 112.467 108.973 112.153 108.973 111.778Z" fill="#52525B"/>
</svg>
